<svg id="Layer_1" data-name="Layer 1" xmlns="http://www.w3.org/2000/svg" width="1099" height="183" viewBox="0 0 1099 183">
  <title>taskr</title>
  <circle cx="837.83" cy="48.91" r="17.52" style="fill: #5ec0fc"/>
  <path d="M828.66,53.38c1-.5,1.94-1,2.95-1.47a1.61,1.61,0,0,1,1,.14,5.47,5.47,0,0,1,2.85,2.21l.42.6a2.86,2.86,0,0,0,.23-.5,26.47,26.47,0,0,1,4.15-8.66A28.63,28.63,0,0,1,845,40a2,2,0,0,1,2-.54l-.85,1.09a59.65,59.65,0,0,0-6.4,9.87,19.68,19.68,0,0,0-2.07,6.46.84.84,0,0,1-.63.78,16,16,0,0,0-1.55.63c-.39.19-.6.11-.81-.28a14.45,14.45,0,0,0-.86-1.28c-1.25-1.82-2.73-3.25-5.17-3.21Z" style="fill: #fff"/>
  <rect x="748.24" y="10.79" width="4.56" height="4.56" transform="translate(229.06 -526.87) rotate(45)" style="fill: #fff"/>
  <rect x="791.01" y="21.26" width="4.87" height="4.87" transform="translate(249.15 -554.11) rotate(45)" style="fill: #5ec0fc"/>
  <rect x="910.95" y="55.98" width="4.87" height="4.87" transform="translate(308.83 -628.75) rotate(45)" style="fill: #fff"/>
  <rect x="958.55" y="36.71" width="4.87" height="4.87" transform="translate(309.15 -668.06) rotate(45)" style="fill: #d0d8dd"/>
  <g>
    <path d="M1090.18,170.38a47.66,47.66,0,0,1-1.2,10.69h-49.07a72.19,72.19,0,0,0-9.37-57.27,48,48,0,0,1,59.64,46.58Z" style="fill: #fff"/>
    <path d="M1042.18,163.07a72.12,72.12,0,0,1-2.27,18h-11a72.22,72.22,0,0,0-7.38-54,47.14,47.14,0,0,1,9-3.24A71.67,71.67,0,0,1,1042.18,163.07Z" style="fill: #fff"/>
    <path d="M1031.18,163.07a72.12,72.12,0,0,1-2.27,18H995.38a48,48,0,0,1,26.15-54A71.61,71.61,0,0,1,1031.18,163.07Z" style="fill: #fff"/>
    <path d="M1030.54,123.8a47.14,47.14,0,0,0-9,3.24,72,72,0,0,0-56.81-35.76q2.7-.21,5.46-.21A71.94,71.94,0,0,1,1030.54,123.8Z" style="fill: #fff"/>
    <path d="M964.72,91.28A72,72,0,0,1,1021.53,127a48,48,0,0,0-26.15,54h-74.7a71.69,71.69,0,0,0-16.76-46.18,72,72,0,0,1,60.72-43.61Z" style="fill: #fff"/>
    <path d="M920.68,181.07h-15a71.82,71.82,0,0,0-6.5-29.94,70.85,70.85,0,0,1,4.74-16.24A71.69,71.69,0,0,1,920.68,181.07Z" style="fill: #fff"/>
    <path d="M905.68,181.07h-5.22a72.5,72.5,0,0,1-1.28-29.94A71.82,71.82,0,0,1,905.68,181.07Z" style="fill: #fff"/>
    <path d="M896.65,127.38a71.64,71.64,0,0,1,7.27,7.51,70.85,70.85,0,0,0-4.74,16.24,71.52,71.52,0,0,0-7.6-12.87A70.92,70.92,0,0,1,896.65,127.38Z" style="fill: #fff"/>
    <path d="M900.46,181.07h-11a72.38,72.38,0,0,1,2.12-42.81,71.52,71.52,0,0,1,7.6,12.87,72.5,72.5,0,0,0,1.28,29.94Z" style="fill: #fff"/>
    <path d="M896.65,127.38a70.92,70.92,0,0,0-5.07,10.88,71.91,71.91,0,0,0-50.39-28.8,72,72,0,0,1,55.46,17.92Z" style="fill: #fff"/>
    <path d="M889.46,181.07H824.72A117.4,117.4,0,0,0,831,111.26a69.49,69.49,0,0,1,10.15-1.8,71.91,71.91,0,0,1,50.39,28.8,72.38,72.38,0,0,0-2.12,42.81Z" style="fill: #fff"/>
    <path d="M831,111.26a117.4,117.4,0,0,1-6.32,69.81H804.08a117.24,117.24,0,0,0,7.76-61.87A71.52,71.52,0,0,1,831,111.26Z" style="fill: #fff"/>
    <path d="M830.57,109.14c.17.7.33,1.41.47,2.12a71.52,71.52,0,0,0-19.2,7.94c-.3-2.15-.67-4.29-1.1-6.4A71.83,71.83,0,0,1,830.57,109.14Z" style="fill: #fff"/>
    <path d="M811.84,119.2a117.24,117.24,0,0,1-7.76,61.87H776.69A72,72,0,0,1,811.84,119.2Z" style="fill: #fff"/>
    <path d="M810.74,112.8c.43,2.11.8,4.25,1.1,6.4a72,72,0,0,0-35.15,61.87h-15A72,72,0,0,1,810.74,112.8Z" style="fill: #fff"/>
    <path d="M716.69,19.07a117,117,0,0,1,113.88,90.07,71.83,71.83,0,0,0-19.83,3.66A117,117,0,0,0,706.38,19.53Q711.46,19.06,716.69,19.07Z" style="fill: #fff"/>
    <path d="M810.74,112.8a72,72,0,0,0-49,68.27H646.5a48,48,0,0,0-46-58.68A117,117,0,0,1,706.38,19.53,117,117,0,0,1,810.74,112.8Z" style="fill: #fff"/>
    <path d="M647.7,170.38a47.66,47.66,0,0,1-1.2,10.69H608.68a117.27,117.27,0,0,1-8.18-58.68A48,48,0,0,1,647.7,170.38Z" style="fill: #fff"/>
    <path d="M608.68,181.07h-9.35a116.26,116.26,0,0,0-18.76-54.73,47.83,47.83,0,0,1,19.13-4h.8a117.27,117.27,0,0,0,8.18,58.68Z" style="fill: #fff"/>
    <path d="M599.33,181.07H588a116.56,116.56,0,0,1-9-45q0-4.65.36-9.21l1.14-.52A116.26,116.26,0,0,1,599.33,181.07Z" style="fill: #fff"/>
    <path d="M588,181.07H552.9a48,48,0,0,1,26.53-54.21q-.36,4.56-.36,9.21A116.56,116.56,0,0,0,588,181.07Z" style="fill: #fff"/>
    <path d="M579.6,124.87c-.06.66-.12,1.32-.17,2a48,48,0,0,0-26.53,54.21H425a81.1,81.1,0,0,0-37.12-59.13,117,117,0,0,1,191.73,2.93Z" style="fill: #fff"/>
    <path d="M425,181.07H366.08a116.3,116.3,0,0,1,21.79-59.13A81.1,81.1,0,0,1,425,181.07Z" style="fill: #fff"/>
    <path d="M387.87,121.94a116.3,116.3,0,0,0-21.79,59.13H285.93a54.12,54.12,0,0,0-13.8-27.7,81.2,81.2,0,0,1,115.74-31.43Z" style="fill: #fff"/>
    <path d="M285.93,181.07H263.72a80.52,80.52,0,0,1,8.41-27.7A54.12,54.12,0,0,1,285.93,181.07Z" style="fill: #fff"/>
    <path d="M232.35,136.07a54.23,54.23,0,0,1,39.78,17.3,80.52,80.52,0,0,0-8.41,27.7H204.48a98.52,98.52,0,0,0-8.24-31.28A54.21,54.21,0,0,1,232.35,136.07Z" style="fill: #fff"/>
    <path d="M204.48,181.07h-25.7a54.31,54.31,0,0,1,17.46-31.28A98.52,98.52,0,0,1,204.48,181.07Z" style="fill: #fff"/>
    <path d="M196.24,149.79a54.31,54.31,0,0,0-17.46,31.28H6.59a99.4,99.4,0,0,1,189.65-31.28Z" style="fill: #fff"/>
  </g>
  <circle cx="863.6" cy="109.07" r="28.13" transform="translate(556.71 923.63) rotate(-76.55)" style="fill: #5ec0fc"/>
  <path d="M847.61,112.63c1.71-.41,3.42-.89,5.15-1.2a2.59,2.59,0,0,1,1.5.59,8.78,8.78,0,0,1,3.62,4.51c.12.32.25.63.44,1.09a4.59,4.59,0,0,0,.55-.69c2.32-4.73,5.93-8.42,9.7-12a46,46,0,0,1,9.5-7.08,3.2,3.2,0,0,1,3.36-.09l-1.73,1.39a95.76,95.76,0,0,0-13.68,13,31.6,31.6,0,0,0-5.64,9.32,1.35,1.35,0,0,1-1.28,1,25.6,25.6,0,0,0-2.65.41c-.68.15-1-.06-1.16-.74a23.2,23.2,0,0,0-.87-2.32c-1.27-3.3-3.06-6.1-6.88-6.94Z" style="fill: #fff"/>
  <circle cx="667.18" cy="36.3" r="23.23" style="fill: #5ec0fc"/>
  <path d="M655,42.23c1.3-.66,2.57-1.37,3.91-2a2.14,2.14,0,0,1,1.32.18A7.25,7.25,0,0,1,664,43.39c.15.23.32.46.56.79a3.79,3.79,0,0,0,.31-.66c1-4.25,3.15-7.9,5.5-11.48a38,38,0,0,1,6.27-7.52,2.65,2.65,0,0,1,2.68-.72l-1.13,1.45a79.09,79.09,0,0,0-8.49,13.09A26.1,26.1,0,0,0,667,46.91a1.11,1.11,0,0,1-.84,1,21.15,21.15,0,0,0-2.05.84c-.52.25-.8.14-1.08-.37a19.16,19.16,0,0,0-1.14-1.7c-1.65-2.41-3.63-4.31-6.86-4.25Z" style="fill: #fff"/>
  <circle cx="983.81" cy="82.02" r="15.77" style="fill: #5ec0fc"/>
  <path d="M975.56,86c.88-.45,1.75-.93,2.65-1.33a1.45,1.45,0,0,1,.9.13,4.92,4.92,0,0,1,2.56,2l.38.54a2.57,2.57,0,0,0,.21-.45A23.83,23.83,0,0,1,986,79.13a25.77,25.77,0,0,1,4.26-5.1,1.8,1.8,0,0,1,1.82-.49l-.76,1a53.69,53.69,0,0,0-5.76,8.88,17.71,17.71,0,0,0-1.86,5.82.76.76,0,0,1-.57.7,14.35,14.35,0,0,0-1.39.57c-.35.17-.54.09-.73-.25a13,13,0,0,0-.78-1.15c-1.12-1.63-2.46-2.93-4.66-2.89Z" style="fill: #fff"/>
  <rect x="648.62" y="75.62" width="12.8" height="12.8" transform="translate(249.85 -439.15) rotate(45)" style="fill: #d0d8dd"/>
  <rect x="739.03" y="63.99" width="4.87" height="4.87" transform="translate(264.14 -504.84) rotate(45)" style="fill: #d0d8dd"/>
</svg>
